# xmcd
#
# Track frame offsets:
#	150
#	18836
#	33925
#	48575
#	66234
#	82485
#	100218
#	118267
#	130770
#	148296
#	163960
#	176962
#	195403
#	211176
#	224295
#
# Disc length: 3208 seconds
#
# Revision: 1
# Processed by: cddbd v1.5.2PL0 Copyright (c) Steve Scherf et al.
# Submitted via: audiograbber 1.83.01
#
DISCID=e80c860f
DTITLE=Rune Rudberg - Strong Enough
DYEAR=2012
DGENRE=Country
TTITLE0=Strong enough to cry
TTITLE1=Is it too late
TTITLE2=Live it up
TTITLE3=Seven spanish angels
TTITLE4=This is a love song
TTITLE5=Whenever you come around
TTITLE6=Sing me a song
TTITLE7=I wanna do it all
TTITLE8=If you see her (Featuring Sonja Rudberg
TTITLE9=This is my life
TTITLE10=Detroit city
TTITLE11=From this moment
TTITLE12=Sugar and pie (Featuring Sonja Rudberg
TTITLE13=Six days on the road
TTITLE14=Nothing has changed
EXTD=
EXTT0=
EXTT1=
EXTT2=
EXTT3=
EXTT4=
EXTT5=
EXTT6=
EXTT7=
EXTT8=
EXTT9=
EXTT10=
EXTT11=
EXTT12=
EXTT13=
EXTT14=
PLAYORDER=
